<svg xmlns="http://www.w3.org/2000/svg" width="96" height="96" viewBox="0 0 96 96" version="1.1"><path d="M 21.080 6.896 C 15.365 8.912, 10.595 13.143, 7.385 19.042 C 5.733 22.079, 5.463 25.267, 5.171 45.214 C 4.773 72.279, 5.564 76.525, 12.296 83.450 C 18.736 90.075, 23.112 91, 48 91 C 71.248 91, 76.608 90.039, 82.573 84.802 C 89.939 78.334, 90.449 76.235, 90.826 50.786 C 91.102 32.144, 90.875 27.080, 89.555 22.540 C 87.688 16.121, 83.400 10.797, 77.595 7.693 C 73.763 5.644, 71.991 5.487, 50 5.244 C 29.004 5.012, 25.922 5.188, 21.080 6.896 M 28.306 11.945 C 21.107 13.086, 16.598 16.150, 13.821 21.788 C 11.611 26.274, 11.500 27.529, 11.500 48 C 11.500 68.412, 11.616 69.736, 13.799 74.167 C 15.064 76.734, 17.173 79.539, 18.487 80.400 C 20.723 81.865, 20.918 81.834, 21.525 79.922 C 22.485 76.896, 30.758 68.999, 34.687 67.357 C 43.414 63.711, 54.908 63.833, 62.290 67.650 C 66.643 69.901, 72.631 75.694, 73.986 78.966 C 75.152 81.782, 75.309 81.844, 77.554 80.373 C 78.845 79.527, 80.936 76.734, 82.201 74.167 C 84.379 69.747, 84.500 68.391, 84.500 48.500 C 84.500 25.670, 83.780 21.442, 79.158 17.118 C 74.151 12.434, 70.697 11.721, 51.500 11.412 C 41.600 11.253, 31.163 11.492, 28.306 11.945 M 40.500 26.394 C 33.586 29.427, 29.194 38.456, 30.912 46.103 C 34.922 63.953, 60.285 64.511, 65.039 46.855 C 67.001 39.571, 63.859 31.843, 57.078 27.274 C 53.185 24.650, 45.416 24.238, 40.500 26.394 M 45.500 31.850 C 40.324 33.533, 37 37.823, 37 42.823 C 37 45.330, 37.876 47.076, 40.400 49.600 C 44.586 53.786, 49.634 54.193, 54.663 50.750 C 61.131 46.323, 59.853 36.056, 52.393 32.516 C 48.968 30.891, 48.567 30.852, 45.500 31.850 M 40.539 72.418 C 37.070 73.383, 34.439 75.019, 31.789 77.860 C 29.705 80.094, 28 82.331, 28 82.830 C 28 83.330, 29.687 84.017, 31.750 84.358 C 36.757 85.186, 60.487 85.065, 65.434 84.186 L 69.367 83.488 66.028 79.685 C 59.718 72.498, 50.105 69.758, 40.539 72.418" stroke="none" fill="#9494b4" fill-rule="evenodd"/></svg>